<svg width="110" height="88" viewBox="0 0 110 88" fill="none" xmlns="http://www.w3.org/2000/svg">
<path d="M32.2134 0.806145C31.0788 1.17918 30.2705 2.43819 30.4959 3.48736C30.5425 3.70496 32.944 9.0363 35.835 15.3469C39.3322 22.9786 41.0731 26.8722 41.0498 26.9888C41.0032 27.1831 28.5763 54.2439 28.4908 54.3372C28.4597 54.3683 23.0351 42.6409 16.437 28.2711C5.64221 4.76191 4.40652 2.11955 4.10342 1.80868C3.36512 1.04706 2.3004 0.852776 1.37558 1.3113C0.862652 1.56777 0.458527 1.97189 0.178748 2.49259C0.0388582 2.75682 0 2.95112 0 3.4485V4.07023L13.1263 32.7087C20.3461 48.4618 26.3536 61.4948 26.4857 61.6736C27.123 62.5673 28.3665 62.9093 29.3379 62.4585C29.7965 62.2487 30.185 61.899 30.4648 61.4638C30.5581 61.3161 33.589 54.7802 37.1951 46.9463C40.7933 39.1125 43.7699 32.732 43.7932 32.7631C43.8243 32.802 44.0807 33.3304 44.3605 33.9522L44.8734 35.0868L37.366 51.4383C29.9674 67.5567 29.8586 67.8054 29.8198 68.3572L29.7887 68.9168L31.7083 73.1756C32.7652 75.5149 33.7134 77.5977 33.8144 77.792C34.5138 79.1909 36.5733 79.5017 37.6924 78.3748C38.0655 77.994 38.353 77.3801 44.6869 63.6165C48.3163 55.7205 51.3083 49.2623 51.3317 49.2623C51.4171 49.2623 52.4352 51.6016 52.3886 51.7104C52.3653 51.7803 49.0079 59.1167 44.9278 68.0152C40.8477 76.9138 37.4671 84.3668 37.4204 84.5844C37.2028 85.5636 37.7391 86.5972 38.7416 87.1179C39.0214 87.2656 39.2157 87.3044 39.7131 87.3044C40.4902 87.2967 41.0265 87.0868 41.4461 86.605C41.6715 86.3485 43.2414 82.999 48.3784 71.8156C52.0311 63.8652 55.0465 57.3759 55.0776 57.407C55.1009 57.438 55.4895 58.2463 55.9247 59.21C56.8184 61.1684 57.0127 61.4948 57.479 61.8446C58.4582 62.5596 59.7406 62.4508 60.611 61.5726C60.9763 61.1995 59.8338 63.6554 81.5711 16.4427L86.5683 5.5857H87.6485C88.4801 5.5857 88.721 5.60901 88.6899 5.68673C88.6744 5.73336 82.2783 19.6834 74.4834 36.6722L60.3079 67.5645V68.1085V68.6525L62.3596 73.1756C64.5745 78.0717 64.5978 78.1028 65.3828 78.4992C65.6859 78.6468 65.8724 78.6779 66.4863 78.6779C67.1392 78.6779 67.2713 78.6546 67.6132 78.4681C68.2583 78.1261 68.4603 77.8464 69.2297 76.1832C69.6339 75.3361 77.1024 59.1012 85.8377 40.1073L101.723 5.5857H102.803C103.635 5.5857 103.876 5.60901 103.845 5.67896C103.829 5.73336 95.7388 23.3672 85.8766 44.8713L67.9396 83.9626L67.9008 84.5533C67.8697 85.074 67.893 85.2061 68.0562 85.5714C68.4603 86.4496 69.2297 86.9547 70.1856 86.9547C70.4887 86.9547 70.8929 86.9003 71.0949 86.8304C71.5768 86.6672 72.0819 86.2009 72.3306 85.7035C72.9057 84.5222 109.743 4.3267 109.86 3.99252C110.039 3.51067 110.046 2.86563 109.883 2.31384C109.79 1.98743 109.666 1.80091 109.316 1.45896C108.546 0.705113 108.717 0.728429 103.829 0.728429H99.6324L99.1894 0.946031C98.2568 1.40456 99.5935 -1.39323 82.3483 36.1749C73.7062 55.0211 66.6029 70.4711 66.5641 70.5022C66.533 70.5333 66.2532 70.0126 65.9501 69.3364C65.4061 68.1551 65.3905 68.1085 65.4993 67.8754C65.5537 67.751 72.1985 53.2491 80.2499 35.6619L94.8917 3.68165L94.8839 3.13763C94.8684 1.97966 94.1767 1.08592 93.0731 0.798375C92.6768 0.697344 92.0084 0.681798 88.5811 0.705113L84.5554 0.728429L84.0347 0.984893C83.7238 1.14032 83.3974 1.37347 83.2187 1.57554C82.9855 1.83977 80.3743 7.47421 70.955 27.9913C64.3725 42.3378 58.9634 54.0418 58.9323 54.0185C58.8468 53.933 57.7821 51.5782 57.7821 51.4694C57.7821 51.4073 62.6472 40.7834 68.5925 27.8437C76.3019 11.0647 79.4261 4.19458 79.4805 3.87594C79.5893 3.30861 79.4183 2.5159 79.0842 2.04961C78.8432 1.70765 78.1904 1.27244 77.7397 1.14809C77.5609 1.10146 75.8667 1.08592 73.2321 1.09369L69.0121 1.11701L68.6391 1.3113C68.2116 1.5289 67.7376 2.01075 67.5044 2.4615C67.4189 2.63248 63.8129 10.4741 59.4841 19.8933C55.1631 29.3125 51.5648 37.1463 51.4871 37.294L51.3472 37.566L51.0985 37.022C50.3291 35.3355 50.2281 35.0868 50.2669 34.9392C50.2825 34.8459 53.4611 27.8747 57.3236 19.4581C64.1937 4.47436 64.3414 4.14018 64.3725 3.60394C64.4269 2.59362 63.945 1.76205 63.0513 1.31907L62.5772 1.07815H58.3572C54.3004 1.07815 54.1217 1.08592 53.7098 1.23359C53.1813 1.43565 52.6684 1.87863 52.4041 2.36824C52.2953 2.57807 50.3369 6.80585 48.0676 11.7641C45.7905 16.7225 43.8942 20.8414 43.8553 20.9269C43.7699 21.0746 44.0341 21.6419 37.8867 8.22806C35.2521 2.49259 34.9413 1.85531 34.5993 1.49782C33.9776 0.821685 33.0061 0.549681 32.2134 0.806145ZM58.2329 5.96651C57.9298 6.75145 47.5546 29.1959 47.5158 29.1493C47.4847 29.1182 47.2282 28.5897 46.9485 27.9758L46.4355 26.8567L51.114 16.7069C53.6787 11.1269 55.8547 6.4095 55.9402 6.22297L56.1034 5.89656H57.1837C57.7743 5.89656 58.2484 5.92765 58.2329 5.96651ZM73.3409 6.04422C73.1466 6.54161 55.1708 45.6796 55.132 45.6873C55.0698 45.6873 54.0517 43.4802 54.0517 43.3481C54.0517 43.3014 57.8521 35.0013 62.4995 24.906C67.1392 14.8106 71.0094 6.4095 71.0872 6.22297L71.2348 5.89656H72.3151C73.3409 5.89656 73.3953 5.90434 73.3409 6.04422ZM48.1297 42.1823L48.6893 43.418L42.371 57.1738C38.9048 64.7434 36.0371 70.9141 36.0138 70.883C35.9827 70.8519 35.7262 70.3001 35.4387 69.6628C34.9646 68.6059 34.9257 68.4738 35.0034 68.2639C35.1744 67.8054 47.4847 40.9466 47.5236 40.9466C47.5469 40.9466 47.8189 41.4984 48.1297 42.1823Z" fill="#981D87"/>
<path d="M32.2134 0.806145C31.0788 1.17918 30.2705 2.43819 30.4959 3.48736C30.5425 3.70496 32.944 9.0363 35.835 15.3469C39.3322 22.9786 41.0731 26.8722 41.0498 26.9888C41.0032 27.1831 28.5763 54.2439 28.4908 54.3372C28.4597 54.3683 23.0351 42.6409 16.437 28.2711C5.64221 4.76191 4.40652 2.11955 4.10342 1.80868C3.36512 1.04706 2.3004 0.852776 1.37558 1.3113C0.862652 1.56777 0.458527 1.97189 0.178748 2.49259C0.0388582 2.75682 0 2.95112 0 3.4485V4.07023L13.1263 32.7087C20.3461 48.4618 26.3536 61.4948 26.4857 61.6736C27.123 62.5673 28.3665 62.9093 29.3379 62.4585C29.7965 62.2487 30.185 61.899 30.4648 61.4638C30.5581 61.3161 33.589 54.7802 37.1951 46.9463C40.7933 39.1125 43.7699 32.732 43.7932 32.7631C43.8243 32.802 44.0807 33.3304 44.3605 33.9522L44.8734 35.0868L37.366 51.4383C29.9674 67.5567 29.8586 67.8054 29.8198 68.3572L29.7887 68.9168L31.7083 73.1756C32.7652 75.5149 33.7134 77.5977 33.8144 77.792C34.5138 79.1909 36.5733 79.5017 37.6924 78.3748C38.0655 77.994 38.353 77.3801 44.6869 63.6165C48.3163 55.7205 51.3083 49.2623 51.3317 49.2623C51.4171 49.2623 52.4352 51.6016 52.3886 51.7104C52.3653 51.7803 49.0079 59.1167 44.9278 68.0152C40.8477 76.9138 37.4671 84.3668 37.4204 84.5844C37.2028 85.5636 37.7391 86.5972 38.7416 87.1179C39.0214 87.2656 39.2157 87.3044 39.7131 87.3044C40.4902 87.2967 41.0265 87.0868 41.4461 86.605C41.6715 86.3485 43.2414 82.999 48.3784 71.8156C52.0311 63.8652 55.0465 57.3759 55.0776 57.407C55.1009 57.438 55.4895 58.2463 55.9247 59.21C56.8184 61.1684 57.0127 61.4948 57.479 61.8446C58.4582 62.5596 59.7406 62.4508 60.611 61.5726C60.9763 61.1995 59.8338 63.6554 81.5711 16.4427L86.5683 5.5857H87.6485C88.4801 5.5857 88.721 5.60901 88.6899 5.68673C88.6744 5.73336 82.2783 19.6834 74.4834 36.6722L60.3079 67.5645V68.1085V68.6525L62.3596 73.1756C64.5745 78.0717 64.5978 78.1028 65.3828 78.4992C65.6859 78.6468 65.8724 78.6779 66.4863 78.6779C67.1392 78.6779 67.2713 78.6546 67.6132 78.4681C68.2583 78.1261 68.4603 77.8464 69.2297 76.1832C69.6339 75.3361 77.1024 59.1012 85.8377 40.1073L101.723 5.5857H102.803C103.635 5.5857 103.876 5.60901 103.845 5.67896C103.829 5.73336 95.7388 23.3672 85.8766 44.8713L67.9396 83.9626L67.9008 84.5533C67.8697 85.074 67.893 85.2061 68.0562 85.5714C68.4603 86.4496 69.2297 86.9547 70.1856 86.9547C70.4887 86.9547 70.8929 86.9003 71.0949 86.8304C71.5768 86.6672 72.0819 86.2009 72.3306 85.7035C72.9057 84.5222 109.743 4.3267 109.86 3.99252C110.039 3.51067 110.046 2.86563 109.883 2.31384C109.79 1.98743 109.666 1.80091 109.316 1.45896C108.546 0.705113 108.717 0.728429 103.829 0.728429H99.6324L99.1894 0.946031C98.2568 1.40456 99.5935 -1.39323 82.3483 36.1749C73.7062 55.0211 66.6029 70.4711 66.5641 70.5022C66.533 70.5333 66.2532 70.0126 65.9501 69.3364C65.4061 68.1551 65.3905 68.1085 65.4993 67.8754C65.5537 67.751 72.1985 53.2491 80.2499 35.6619L94.8917 3.68165L94.8839 3.13763C94.8684 1.97966 94.1767 1.08592 93.0731 0.798375C92.6768 0.697344 92.0084 0.681798 88.5811 0.705113L84.5554 0.728429L84.0347 0.984893C83.7238 1.14032 83.3974 1.37347 83.2187 1.57554C82.9855 1.83977 80.3743 7.47421 70.955 27.9913C64.3725 42.3378 58.9634 54.0418 58.9323 54.0185C58.8468 53.933 57.7821 51.5782 57.7821 51.4694C57.7821 51.4073 62.6472 40.7834 68.5925 27.8437C76.3019 11.0647 79.4261 4.19458 79.4805 3.87594C79.5893 3.30861 79.4183 2.5159 79.0842 2.04961C78.8432 1.70765 78.1904 1.27244 77.7397 1.14809C77.5609 1.10146 75.8667 1.08592 73.2321 1.09369L69.0121 1.11701L68.6391 1.3113C68.2116 1.5289 67.7376 2.01075 67.5044 2.4615C67.4189 2.63248 63.8129 10.4741 59.4841 19.8933C55.1631 29.3125 51.5648 37.1463 51.4871 37.294L51.3472 37.566L51.0985 37.022C50.3291 35.3355 50.2281 35.0868 50.2669 34.9392C50.2825 34.8459 53.4611 27.8747 57.3236 19.4581C64.1937 4.47436 64.3414 4.14018 64.3725 3.60394C64.4269 2.59362 63.945 1.76205 63.0513 1.31907L62.5772 1.07815H58.3572C54.3004 1.07815 54.1217 1.08592 53.7098 1.23359C53.1813 1.43565 52.6684 1.87863 52.4041 2.36824C52.2953 2.57807 50.3369 6.80585 48.0676 11.7641C45.7905 16.7225 43.8942 20.8414 43.8553 20.9269C43.7699 21.0746 44.0341 21.6419 37.8867 8.22806C35.2521 2.49259 34.9413 1.85531 34.5993 1.49782C33.9776 0.821685 33.0061 0.549681 32.2134 0.806145ZM58.2329 5.96651C57.9298 6.75145 47.5546 29.1959 47.5158 29.1493C47.4847 29.1182 47.2282 28.5897 46.9485 27.9758L46.4355 26.8567L51.114 16.7069C53.6787 11.1269 55.8547 6.4095 55.9402 6.22297L56.1034 5.89656H57.1837C57.7743 5.89656 58.2484 5.92765 58.2329 5.96651ZM73.3409 6.04422C73.1466 6.54161 55.1708 45.6796 55.132 45.6873C55.0698 45.6873 54.0517 43.4802 54.0517 43.3481C54.0517 43.3014 57.8521 35.0013 62.4995 24.906C67.1392 14.8106 71.0094 6.4095 71.0872 6.22297L71.2348 5.89656H72.3151C73.3409 5.89656 73.3953 5.90434 73.3409 6.04422ZM48.1297 42.1823L48.6893 43.418L42.371 57.1738C38.9048 64.7434 36.0371 70.9141 36.0138 70.883C35.9827 70.8519 35.7262 70.3001 35.4387 69.6628C34.9646 68.6059 34.9257 68.4738 35.0034 68.2639C35.1744 67.8054 47.4847 40.9466 47.5236 40.9466C47.5469 40.9466 47.8189 41.4984 48.1297 42.1823Z" fill="#981D87"/>
</svg>
