<svg width="56" height="57" viewBox="0 0 56 57" fill="none" xmlns="http://www.w3.org/2000/svg">
<rect y="0.27417" width="56" height="56" rx="28" fill="#FFF4FF"/>
<path d="M44.8299 32.8081H26.3605C26.1401 32.8081 25.9614 32.987 25.9614 33.2076V36.9696C25.9614 37.1902 26.1401 37.3691 26.3605 37.3691H44.8299C45.0503 37.3691 45.2289 37.1902 45.2289 36.9696V33.2076C45.2289 32.987 45.0503 32.8081 44.8299 32.8081Z" fill="url(#paint0_linear_1164_12343)"/>
<path opacity="0.2" d="M35.5913 37.0928C35.5216 37.0928 35.4656 37.0367 35.4656 36.9669V33.1898C35.4656 33.1201 35.5216 33.064 35.5913 33.064C35.661 33.064 35.717 33.1201 35.717 33.1898V36.9669C35.717 37.0367 35.661 37.0928 35.5913 37.0928Z" fill="#981D87"/>
<path opacity="0.2" d="M26.4983 37.093C26.4286 37.093 26.3726 37.0369 26.3726 36.9671V33.1901C26.3726 33.1203 26.4286 33.0642 26.4983 33.0642C26.568 33.0642 26.624 33.1203 26.624 33.1901V36.9671C26.624 37.0369 26.568 37.093 26.4983 37.093Z" fill="#981D87"/>
<path opacity="0.2" d="M27.4241 37.093C27.3544 37.093 27.2983 37.0369 27.2983 36.9671V33.1901C27.2983 33.1203 27.3544 33.0642 27.4241 33.0642C27.4938 33.0642 27.5498 33.1203 27.5498 33.1901V36.9671C27.5498 37.0369 27.4938 37.093 27.4241 37.093Z" fill="#981D87"/>
<path opacity="0.2" d="M28.7685 37.093C28.6989 37.093 28.6428 37.0369 28.6428 36.9671V33.1901C28.6428 33.1203 28.6989 33.0642 28.7685 33.0642C28.8382 33.0642 28.8943 33.1203 28.8943 33.1901V36.9671C28.8943 37.0369 28.8382 37.093 28.7685 37.093Z" fill="#981D87"/>
<path opacity="0.2" d="M30.2519 37.093C30.1823 37.093 30.1262 37.0369 30.1262 36.9671V33.1901C30.1262 33.1203 30.1823 33.0642 30.2519 33.0642C30.3216 33.0642 30.3777 33.1203 30.3777 33.1901V36.9671C30.3777 37.0369 30.3216 37.093 30.2519 37.093Z" fill="#981D87"/>
<path opacity="0.2" d="M31.8738 37.093C31.8041 37.093 31.748 37.0369 31.748 36.9671V33.1901C31.748 33.1203 31.8041 33.0642 31.8738 33.0642C31.9435 33.0642 31.9995 33.1203 31.9995 33.1901V36.9671C31.9995 37.0369 31.9435 37.093 31.8738 37.093Z" fill="#981D87"/>
<path opacity="0.2" d="M33.6316 37.093C33.5619 37.093 33.5059 37.0369 33.5059 36.9671V33.1901C33.5059 33.1203 33.5619 33.0642 33.6316 33.0642C33.7013 33.0642 33.7573 33.1203 33.7573 33.1901V36.9671C33.7573 37.0369 33.7013 37.093 33.6316 37.093Z" fill="#981D87"/>
<path opacity="0.2" d="M44.687 33.0657C44.7567 33.0657 44.8127 33.1218 44.8127 33.1915V36.9686C44.8127 37.0384 44.7567 37.0945 44.687 37.0945C44.6173 37.0945 44.5613 37.0384 44.5613 36.9686V33.1915C44.5613 33.1218 44.6173 33.0657 44.687 33.0657Z" fill="#981D87"/>
<path opacity="0.2" d="M43.7612 33.0657C43.8309 33.0657 43.8869 33.1218 43.8869 33.1915V36.9686C43.8869 37.0384 43.8309 37.0945 43.7612 37.0945C43.6915 37.0945 43.6355 37.0384 43.6355 36.9686V33.1915C43.6355 33.1218 43.6915 33.0657 43.7612 33.0657Z" fill="#981D87"/>
<path opacity="0.2" d="M42.418 33.0657C42.4877 33.0657 42.5437 33.1218 42.5437 33.1915V36.9686C42.5437 37.0384 42.4877 37.0945 42.418 37.0945C42.3483 37.0945 42.2922 37.0384 42.2922 36.9686V33.1915C42.2922 33.1218 42.3483 33.0657 42.418 33.0657Z" fill="#981D87"/>
<path opacity="0.2" d="M40.9363 33.0657C41.006 33.0657 41.062 33.1218 41.062 33.1915V36.9686C41.062 37.0384 41.006 37.0945 40.9363 37.0945C40.8666 37.0945 40.8105 37.0384 40.8105 36.9686V33.1915C40.8105 33.1218 40.8666 33.0657 40.9363 33.0657Z" fill="#981D87"/>
<path opacity="0.2" d="M39.3157 33.0657C39.3854 33.0657 39.4414 33.1218 39.4414 33.1915V36.9686C39.4414 37.0384 39.3854 37.0945 39.3157 37.0945C39.246 37.0945 39.1899 37.0384 39.1899 36.9686V33.1915C39.1899 33.1218 39.246 33.0657 39.3157 33.0657Z" fill="#981D87"/>
<path opacity="0.2" d="M37.5579 33.0657C37.6276 33.0657 37.6836 33.1218 37.6836 33.1915V36.9686C37.6836 37.0384 37.6276 37.0945 37.5579 37.0945C37.4882 37.0945 37.4321 37.0384 37.4321 36.9686V33.1915C37.4321 33.1218 37.4882 33.0657 37.5579 33.0657Z" fill="#981D87"/>
<path opacity="0.2" d="M45.2261 33.2144V36.9655C45.2261 37.1885 45.0444 37.3718 44.8216 37.3718H26.3645C26.1855 37.3718 26.0324 37.2555 25.9805 37.0941H36.0795V33.0667H37.7809V37.0941H38.2756V33.0667H39.5384V37.0941H39.7037V33.0667H41.0485V37.0941H41.1578V33.0667H45.2001C45.2179 33.1132 45.2275 33.1624 45.2275 33.2158L45.2261 33.2144Z" fill="#981D87"/>
<path opacity="0.2" d="M44.8203 32.8081H26.3632C26.1404 32.8081 25.9573 32.9887 25.9573 33.2144V36.9655C25.9573 37.0093 25.9641 37.053 25.9778 37.0927H26.3741V33.0653H26.6078V37.0927H27.1845V33.0653H27.5493V37.0927H28.5032V33.0653H29.0239V37.0927H29.8206V33.0653H30.3754V37.0927H31.1722V33.0653H32.0372V37.0927H32.4349V33.0653H33.7523V37.0927H33.9518V33.0653H45.1988C45.1387 32.9134 44.9925 32.8081 44.8216 32.8081H44.8203Z" fill="white"/>
<path d="M45.2684 28.2976H26.7989C26.5786 28.2976 26.3999 28.4765 26.3999 28.6971V32.4591C26.3999 32.6797 26.5786 32.8586 26.7989 32.8586H45.2684C45.4887 32.8586 45.6674 32.6797 45.6674 32.4591V28.6971C45.6674 28.4765 45.4887 28.2976 45.2684 28.2976Z" fill="url(#paint1_linear_1164_12343)"/>
<path opacity="0.2" d="M36.0298 32.5808C35.9601 32.5808 35.9041 32.5247 35.9041 32.4549V28.6779C35.9041 28.6081 35.9601 28.552 36.0298 28.552C36.0995 28.552 36.1555 28.6081 36.1555 28.6779V32.4549C36.1555 32.5247 36.0995 32.5808 36.0298 32.5808Z" fill="#981D87"/>
<path opacity="0.2" d="M26.936 32.5808C26.8663 32.5808 26.8103 32.5247 26.8103 32.4549V28.6779C26.8103 28.6081 26.8663 28.552 26.936 28.552C27.0057 28.552 27.0618 28.6081 27.0618 28.6779V32.4549C27.0618 32.5247 27.0057 32.5808 26.936 32.5808Z" fill="#981D87"/>
<path opacity="0.2" d="M27.8623 32.5808C27.7926 32.5808 27.7366 32.5247 27.7366 32.4549V28.6779C27.7366 28.6081 27.7926 28.552 27.8623 28.552C27.932 28.552 27.988 28.6081 27.988 28.6779V32.4549C27.988 32.5247 27.932 32.5808 27.8623 32.5808Z" fill="#981D87"/>
<path opacity="0.2" d="M29.2068 32.5808C29.1371 32.5808 29.0811 32.5247 29.0811 32.4549V28.6779C29.0811 28.6081 29.1371 28.552 29.2068 28.552C29.2765 28.552 29.3325 28.6081 29.3325 28.6779V32.4549C29.3325 32.5247 29.2765 32.5808 29.2068 32.5808Z" fill="#981D87"/>
<path opacity="0.2" d="M30.6872 32.5808C30.6176 32.5808 30.5615 32.5247 30.5615 32.4549V28.6779C30.5615 28.6081 30.6176 28.552 30.6872 28.552C30.7569 28.552 30.813 28.6081 30.813 28.6779V32.4549C30.813 32.5247 30.7569 32.5808 30.6872 32.5808Z" fill="#981D87"/>
<path opacity="0.2" d="M32.3118 32.5808C32.2421 32.5808 32.186 32.5247 32.186 32.4549V28.6779C32.186 28.6081 32.2421 28.552 32.3118 28.552C32.3815 28.552 32.4375 28.6081 32.4375 28.6779V32.4549C32.4375 32.5247 32.3815 32.5808 32.3118 32.5808Z" fill="#981D87"/>
<path opacity="0.2" d="M34.0696 32.5808C33.9999 32.5808 33.9438 32.5247 33.9438 32.4549V28.6779C33.9438 28.6081 33.9999 28.552 34.0696 28.552C34.1393 28.552 34.1953 28.6081 34.1953 28.6779V32.4549C34.1953 32.5247 34.1393 32.5808 34.0696 32.5808Z" fill="#981D87"/>
<path opacity="0.2" d="M45.1252 28.5535C45.1949 28.5535 45.251 28.6096 45.251 28.6793V32.4564C45.251 32.5262 45.1949 32.5823 45.1252 32.5823C45.0555 32.5823 44.9995 32.5262 44.9995 32.4564V28.6793C44.9995 28.6096 45.0555 28.5535 45.1252 28.5535Z" fill="#981D87"/>
<path opacity="0.2" d="M44.1992 28.5535C44.2689 28.5535 44.3249 28.6096 44.3249 28.6793V32.4564C44.3249 32.5262 44.2689 32.5823 44.1992 32.5823C44.1295 32.5823 44.0735 32.5262 44.0735 32.4564V28.6793C44.0735 28.6096 44.1295 28.5535 44.1992 28.5535Z" fill="#981D87"/>
<path opacity="0.2" d="M42.8562 28.5535C42.9259 28.5535 42.9819 28.6096 42.9819 28.6793V32.4564C42.9819 32.5262 42.9259 32.5823 42.8562 32.5823C42.7865 32.5823 42.7305 32.5262 42.7305 32.4564V28.6793C42.7305 28.6096 42.7865 28.5535 42.8562 28.5535Z" fill="#981D87"/>
<path opacity="0.2" d="M41.3757 28.5535C41.4454 28.5535 41.5015 28.6096 41.5015 28.6793V32.4564C41.5015 32.5262 41.4454 32.5823 41.3757 32.5823C41.306 32.5823 41.25 32.5262 41.25 32.4564V28.6793C41.25 28.6096 41.306 28.5535 41.3757 28.5535Z" fill="#981D87"/>
<path opacity="0.2" d="M39.7537 28.5535C39.8233 28.5535 39.8794 28.6096 39.8794 28.6793V32.4564C39.8794 32.5262 39.8233 32.5823 39.7537 32.5823C39.684 32.5823 39.6279 32.5262 39.6279 32.4564V28.6793C39.6279 28.6096 39.684 28.5535 39.7537 28.5535Z" fill="#981D87"/>
<path opacity="0.2" d="M37.9958 28.5535C38.0655 28.5535 38.1216 28.6096 38.1216 28.6793V32.4564C38.1216 32.5262 38.0655 32.5823 37.9958 32.5823C37.9261 32.5823 37.8701 32.5262 37.8701 32.4564V28.6793C37.8701 28.6096 37.9261 28.5535 37.9958 28.5535Z" fill="#981D87"/>
<path opacity="0.2" d="M45.666 28.7022V32.4533C45.666 32.6763 45.4842 32.8596 45.2601 32.8596H26.803C26.6239 32.8596 26.4709 32.7433 26.4189 32.5819H36.518V28.5544H38.2194V32.5819H38.7141V28.5544H39.9769V32.5819H40.1422V28.5544H41.4869V32.5819H41.5963V28.5544H45.6386C45.6564 28.601 45.666 28.6502 45.666 28.7036V28.7022Z" fill="#981D87"/>
<path opacity="0.2" d="M45.2629 28.2976H26.8058C26.5817 28.2976 26.3999 28.4782 26.3999 28.7039V32.455C26.3999 32.5001 26.4067 32.5425 26.4204 32.5822H26.8167V28.5548H27.0504V32.5822H27.6271V28.5548H27.992V32.5822H28.9459V28.5548H29.4665V32.5822H30.2632V28.5548H30.8181V32.5822H31.6148V28.5548H32.4798V32.5822H32.8775V28.5548H34.1949V32.5822H34.3944V28.5548H45.6414C45.5813 28.4029 45.4351 28.2976 45.2643 28.2976H45.2629Z" fill="white"/>
<path d="M43.6382 23.7861H25.1688C24.9484 23.7861 24.7698 23.965 24.7698 24.1856V27.9476C24.7698 28.1682 24.9484 28.3471 25.1688 28.3471H43.6382C43.8586 28.3471 44.0373 28.1682 44.0373 27.9476V24.1856C44.0373 23.965 43.8586 23.7861 43.6382 23.7861Z" fill="url(#paint2_linear_1164_12343)"/>
<path opacity="0.2" d="M34.404 28.0708C34.3344 28.0708 34.2783 28.0147 34.2783 27.9449V24.1678C34.2783 24.0981 34.3344 24.042 34.404 24.042C34.4737 24.042 34.5298 24.0981 34.5298 24.1678V27.9449C34.5298 28.0147 34.4737 28.0708 34.404 28.0708Z" fill="#981D87"/>
<path opacity="0.2" d="M25.3069 28.0708C25.2372 28.0708 25.1812 28.0147 25.1812 27.9449V24.1678C25.1812 24.0981 25.2372 24.042 25.3069 24.042C25.3766 24.042 25.4326 24.0981 25.4326 24.1678V27.9449C25.4326 28.0147 25.3766 28.0708 25.3069 28.0708Z" fill="#981D87"/>
<path opacity="0.2" d="M26.2327 28.0708C26.163 28.0708 26.1069 28.0147 26.1069 27.9449V24.1678C26.1069 24.0981 26.163 24.042 26.2327 24.042C26.3024 24.042 26.3584 24.0981 26.3584 24.1678V27.9449C26.3584 28.0147 26.3024 28.0708 26.2327 28.0708Z" fill="#981D87"/>
<path opacity="0.2" d="M27.5801 28.0708C27.5104 28.0708 27.4543 28.0147 27.4543 27.9449V24.1678C27.4543 24.0981 27.5104 24.042 27.5801 24.042C27.6498 24.042 27.7058 24.0981 27.7058 24.1678V27.9449C27.7058 28.0147 27.6498 28.0708 27.5801 28.0708Z" fill="#981D87"/>
<path opacity="0.2" d="M29.0605 28.0708C28.9908 28.0708 28.9348 28.0147 28.9348 27.9449V24.1678C28.9348 24.0981 28.9908 24.042 29.0605 24.042C29.1302 24.042 29.1863 24.0981 29.1863 24.1678V27.9449C29.1863 28.0147 29.1302 28.0708 29.0605 28.0708Z" fill="#981D87"/>
<path opacity="0.2" d="M30.6824 28.0708C30.6127 28.0708 30.5566 28.0147 30.5566 27.9449V24.1678C30.5566 24.0981 30.6127 24.042 30.6824 24.042C30.7521 24.042 30.8081 24.0981 30.8081 24.1678V27.9449C30.8081 28.0147 30.7521 28.0708 30.6824 28.0708Z" fill="#981D87"/>
<path opacity="0.2" d="M32.4402 28.0708C32.3705 28.0708 32.3145 28.0147 32.3145 27.9449V24.1678C32.3145 24.0981 32.3705 24.042 32.4402 24.042C32.5099 24.042 32.5659 24.0981 32.5659 24.1678V27.9449C32.5659 28.0147 32.5099 28.0708 32.4402 28.0708Z" fill="#981D87"/>
<path opacity="0.2" d="M43.4998 24.042C43.5694 24.042 43.6255 24.0981 43.6255 24.1678V27.9449C43.6255 28.0147 43.5694 28.0708 43.4998 28.0708C43.4301 28.0708 43.374 28.0147 43.374 27.9449V24.1678C43.374 24.0981 43.4301 24.042 43.4998 24.042Z" fill="#981D87"/>
<path opacity="0.2" d="M42.574 24.042C42.6437 24.042 42.6997 24.0981 42.6997 24.1678V27.9449C42.6997 28.0147 42.6437 28.0708 42.574 28.0708C42.5043 28.0708 42.4482 28.0147 42.4482 27.9449V24.1678C42.4482 24.0981 42.5043 24.042 42.574 24.042Z" fill="#981D87"/>
<path opacity="0.2" d="M41.2292 24.042C41.2989 24.042 41.355 24.0981 41.355 24.1678V27.9449C41.355 28.0147 41.2989 28.0708 41.2292 28.0708C41.1595 28.0708 41.1035 28.0147 41.1035 27.9449V24.1678C41.1035 24.0981 41.1595 24.042 41.2292 24.042Z" fill="#981D87"/>
<path opacity="0.2" d="M39.7449 24.042C39.8146 24.042 39.8706 24.0981 39.8706 24.1678V27.9449C39.8706 28.0147 39.8146 28.0708 39.7449 28.0708C39.6752 28.0708 39.6191 28.0147 39.6191 27.9449V24.1678C39.6191 24.0981 39.6752 24.042 39.7449 24.042Z" fill="#981D87"/>
<path opacity="0.2" d="M38.1243 24.042C38.194 24.042 38.25 24.0981 38.25 24.1678V27.9449C38.25 28.0147 38.194 28.0708 38.1243 28.0708C38.0546 28.0708 37.9985 28.0147 37.9985 27.9449V24.1678C37.9985 24.0981 38.0546 24.042 38.1243 24.042Z" fill="#981D87"/>
<path opacity="0.2" d="M36.3664 24.042C36.4361 24.042 36.4922 24.0981 36.4922 24.1678V27.9449C36.4922 28.0147 36.4361 28.0708 36.3664 28.0708C36.2968 28.0708 36.2407 28.0147 36.2407 27.9449V24.1678C36.2407 24.0981 36.2968 24.042 36.3664 24.042Z" fill="#981D87"/>
<path opacity="0.2" d="M44.0375 24.1922V27.9433C44.0375 28.1663 43.8558 28.3496 43.6317 28.3496H25.1745C24.9955 28.3496 24.8425 28.2333 24.7905 28.0719H34.8896V24.0444H36.591V28.0719H37.0857V24.0444H38.3484V28.0719H38.5138V24.0444H39.8585V28.0719H39.9678V24.0444H44.0102C44.028 24.0909 44.0375 24.1402 44.0375 24.1935V24.1922Z" fill="#981D87"/>
<path opacity="0.2" d="M43.6328 23.7861H25.1757C24.9529 23.7861 24.7698 23.9667 24.7698 24.1924V27.9435C24.7698 27.9873 24.7766 28.0311 24.7903 28.0707H25.1866V24.0433H25.4203V28.0707H25.997V24.0433H26.3618V28.0707H27.3157V24.0433H27.8364V28.0707H28.6331V24.0433H29.1879V28.0707H29.9847V24.0433H30.8497V28.0707H31.2474V24.0433H32.5648V28.0707H32.7643V24.0433H44.0113C43.9512 23.8915 43.805 23.7861 43.6341 23.7861H43.6328Z" fill="white"/>
<path d="M44.8299 19.2742H26.3605C26.1401 19.2742 25.9614 19.453 25.9614 19.6736V23.4357C25.9614 23.6563 26.1401 23.8351 26.3605 23.8351H44.8299C45.0503 23.8351 45.2289 23.6563 45.2289 23.4357V19.6736C45.2289 19.453 45.0503 19.2742 44.8299 19.2742Z" fill="url(#paint3_linear_1164_12343)"/>
<path opacity="0.2" d="M35.5913 23.5588C35.5216 23.5588 35.4656 23.5027 35.4656 23.433V19.6559C35.4656 19.5861 35.5216 19.53 35.5913 19.53C35.661 19.53 35.717 19.5861 35.717 19.6559V23.433C35.717 23.5027 35.661 23.5588 35.5913 23.5588Z" fill="#981D87"/>
<path opacity="0.2" d="M26.4983 23.5588C26.4286 23.5588 26.3726 23.5027 26.3726 23.433V19.6559C26.3726 19.5861 26.4286 19.53 26.4983 19.53C26.568 19.53 26.624 19.5861 26.624 19.6559V23.433C26.624 23.5027 26.568 23.5588 26.4983 23.5588Z" fill="#981D87"/>
<path opacity="0.2" d="M27.4241 23.5588C27.3544 23.5588 27.2983 23.5027 27.2983 23.433V19.6559C27.2983 19.5861 27.3544 19.53 27.4241 19.53C27.4938 19.53 27.5498 19.5861 27.5498 19.6559V23.433C27.5498 23.5027 27.4938 23.5588 27.4241 23.5588Z" fill="#981D87"/>
<path opacity="0.2" d="M28.7685 23.5588C28.6989 23.5588 28.6428 23.5027 28.6428 23.433V19.6559C28.6428 19.5861 28.6989 19.53 28.7685 19.53C28.8382 19.53 28.8943 19.5861 28.8943 19.6559V23.433C28.8943 23.5027 28.8382 23.5588 28.7685 23.5588Z" fill="#981D87"/>
<path opacity="0.2" d="M30.2519 23.5588C30.1823 23.5588 30.1262 23.5027 30.1262 23.433V19.6559C30.1262 19.5861 30.1823 19.53 30.2519 19.53C30.3216 19.53 30.3777 19.5861 30.3777 19.6559V23.433C30.3777 23.5027 30.3216 23.5588 30.2519 23.5588Z" fill="#981D87"/>
<path opacity="0.2" d="M31.8738 23.5588C31.8041 23.5588 31.748 23.5027 31.748 23.433V19.6559C31.748 19.5861 31.8041 19.53 31.8738 19.53C31.9435 19.53 31.9995 19.5861 31.9995 19.6559V23.433C31.9995 23.5027 31.9435 23.5588 31.8738 23.5588Z" fill="#981D87"/>
<path opacity="0.2" d="M33.6316 23.5588C33.5619 23.5588 33.5059 23.5027 33.5059 23.433V19.6559C33.5059 19.5861 33.5619 19.53 33.6316 19.53C33.7013 19.53 33.7573 19.5861 33.7573 19.6559V23.433C33.7573 23.5027 33.7013 23.5588 33.6316 23.5588Z" fill="#981D87"/>
<path opacity="0.2" d="M44.687 19.5315C44.7567 19.5315 44.8127 19.5876 44.8127 19.6574V23.4344C44.8127 23.5042 44.7567 23.5603 44.687 23.5603C44.6173 23.5603 44.5613 23.5042 44.5613 23.4344V19.6574C44.5613 19.5876 44.6173 19.5315 44.687 19.5315Z" fill="#981D87"/>
<path opacity="0.2" d="M43.7612 19.5315C43.8309 19.5315 43.8869 19.5876 43.8869 19.6574V23.4344C43.8869 23.5042 43.8309 23.5603 43.7612 23.5603C43.6915 23.5603 43.6355 23.5042 43.6355 23.4344V19.6574C43.6355 19.5876 43.6915 19.5315 43.7612 19.5315Z" fill="#981D87"/>
<path opacity="0.2" d="M42.418 19.5315C42.4877 19.5315 42.5437 19.5876 42.5437 19.6574V23.4344C42.5437 23.5042 42.4877 23.5603 42.418 23.5603C42.3483 23.5603 42.2922 23.5042 42.2922 23.4344V19.6574C42.2922 19.5876 42.3483 19.5315 42.418 19.5315Z" fill="#981D87"/>
<path opacity="0.2" d="M40.9363 19.5315C41.006 19.5315 41.062 19.5876 41.062 19.6574V23.4344C41.062 23.5042 41.006 23.5603 40.9363 23.5603C40.8666 23.5603 40.8105 23.5042 40.8105 23.4344V19.6574C40.8105 19.5876 40.8666 19.5315 40.9363 19.5315Z" fill="#981D87"/>
<path opacity="0.2" d="M39.3157 19.5315C39.3854 19.5315 39.4414 19.5876 39.4414 19.6574V23.4344C39.4414 23.5042 39.3854 23.5603 39.3157 23.5603C39.246 23.5603 39.1899 23.5042 39.1899 23.4344V19.6574C39.1899 19.5876 39.246 19.5315 39.3157 19.5315Z" fill="#981D87"/>
<path opacity="0.2" d="M37.5579 19.5315C37.6276 19.5315 37.6836 19.5876 37.6836 19.6574V23.4344C37.6836 23.5042 37.6276 23.5603 37.5579 23.5603C37.4882 23.5603 37.4321 23.5042 37.4321 23.4344V19.6574C37.4321 19.5876 37.4882 19.5315 37.5579 19.5315Z" fill="#981D87"/>
<path opacity="0.2" d="M45.2261 19.6805V23.4315C45.2261 23.6545 45.0444 23.8378 44.8216 23.8378H26.3645C26.1855 23.8378 26.0324 23.7216 25.9805 23.5601H36.0795V19.5327H37.7809V23.5601H38.2756V19.5327H39.5384V23.5601H39.7037V19.5327H41.0485V23.5601H41.1578V19.5327H45.2001C45.2179 19.5792 45.2275 19.6285 45.2275 19.6818L45.2261 19.6805Z" fill="#981D87"/>
<path opacity="0.2" d="M44.8203 19.2742H26.3632C26.1404 19.2742 25.9573 19.4547 25.9573 19.6805V23.4316C25.9573 23.4753 25.9641 23.5191 25.9778 23.5588H26.3741V19.5314H26.6078V23.5588H27.1845V19.5314H27.5493V23.5588H28.5032V19.5314H29.0239V23.5588H29.8206V19.5314H30.3754V23.5588H31.1722V19.5314H32.0372V23.5588H32.4349V19.5314H33.7523V23.5588H33.9518V19.5314H45.1988C45.1387 19.3795 44.9925 19.2742 44.8216 19.2742H44.8203Z" fill="white"/>
<path d="M25.9279 24.1827L14.1725 36.0885L13.0984 37.1761C12.9016 37.3772 12.5805 37.3786 12.3796 37.1802L9.86232 34.6904C9.66143 34.4934 9.66007 34.1706 9.85686 33.9708L13.0164 30.7697L22.6864 20.9775C22.8832 20.7764 23.2057 20.775 23.4066 20.972L25.9238 23.4618C26.1233 23.6615 26.1247 23.9816 25.9279 24.1827Z" fill="url(#paint4_linear_1164_12343)"/>
<path opacity="0.2" d="M19.3154 30.4839C19.2662 30.5331 19.1869 30.5331 19.1377 30.4839L16.4551 27.8285C16.4059 27.7793 16.4059 27.7 16.4551 27.6507C16.5043 27.6015 16.5836 27.6015 16.6328 27.6507L19.3154 30.306C19.3646 30.3553 19.3646 30.4346 19.3154 30.4839Z" fill="#981D87"/>
<path opacity="0.2" d="M12.9194 36.9602C12.8702 37.0094 12.7909 37.0094 12.7417 36.9602L10.0591 34.3049C10.0099 34.2556 10.0099 34.1763 10.0591 34.127C10.1083 34.0778 10.1876 34.0778 10.2368 34.127L12.9194 36.7823C12.9686 36.8316 12.9686 36.9109 12.9194 36.9602Z" fill="#981D87"/>
<path opacity="0.2" d="M13.572 36.2995C13.5228 36.3488 13.4435 36.3488 13.3943 36.2995L10.7117 33.6442C10.6625 33.595 10.6625 33.5156 10.7117 33.4664C10.7609 33.4171 10.8402 33.4171 10.8894 33.4664L13.572 36.1217C13.6212 36.1709 13.6212 36.2503 13.572 36.2995Z" fill="#981D87"/>
<path opacity="0.2" d="M14.5168 35.343C14.4676 35.3922 14.3883 35.3922 14.3391 35.343L11.6565 32.6877C11.6073 32.6384 11.6073 32.5591 11.6565 32.5098C11.7057 32.4606 11.785 32.4606 11.8342 32.5098L14.5168 35.1651C14.566 35.2144 14.566 35.2937 14.5168 35.343Z" fill="#981D87"/>
<path opacity="0.2" d="M15.5595 34.2883C15.5103 34.3375 15.4311 34.3375 15.3819 34.2883L12.6993 31.633C12.6501 31.5837 12.6501 31.5044 12.6993 31.4551C12.7484 31.4059 12.8277 31.4059 12.8769 31.4551L15.5595 34.1105C15.6087 34.1597 15.6087 34.239 15.5595 34.2883Z" fill="#981D87"/>
<path opacity="0.2" d="M16.6975 33.134C16.6483 33.1832 16.569 33.1832 16.5198 33.134L13.8372 30.4787C13.788 30.4294 13.788 30.3501 13.8372 30.3009C13.8864 30.2516 13.9657 30.2516 14.0148 30.3009L16.6975 32.9562C16.7467 33.0054 16.7467 33.0848 16.6975 33.134Z" fill="#981D87"/>
<path opacity="0.2" d="M17.936 31.8806C17.8868 31.9298 17.8075 31.9298 17.7583 31.8806L15.0757 29.2253C15.0265 29.176 15.0265 29.0967 15.0757 29.0474C15.1249 28.9982 15.2042 28.9982 15.2534 29.0474L17.936 31.7027C17.9852 31.752 17.9852 31.8313 17.936 31.8806Z" fill="#981D87"/>
<path opacity="0.2" d="M22.8452 21.1773C22.8944 21.1281 22.9737 21.1281 23.0229 21.1773L25.7055 23.8326C25.7547 23.8819 25.7547 23.9612 25.7055 24.0105C25.6563 24.0597 25.5771 24.0597 25.5279 24.0105L22.8452 21.3552C22.7961 21.3059 22.7961 21.2266 22.8452 21.1773Z" fill="#981D87"/>
<path opacity="0.2" d="M22.1927 21.8367C22.2419 21.7875 22.3211 21.7875 22.3703 21.8367L25.0529 24.4921C25.1021 24.5413 25.1021 24.6206 25.0529 24.6699C25.0037 24.7191 24.9245 24.7191 24.8753 24.6699L22.1927 22.0146C22.1435 21.9653 22.1435 21.886 22.1927 21.8367Z" fill="#981D87"/>
<path opacity="0.2" d="M21.2478 22.7943C21.297 22.745 21.3763 22.745 21.4255 22.7943L24.1081 25.4496C24.1573 25.4988 24.1573 25.5782 24.1081 25.6274C24.0589 25.6767 23.9796 25.6767 23.9304 25.6274L21.2478 22.9721C21.1986 22.9229 21.1986 22.8435 21.2478 22.7943Z" fill="#981D87"/>
<path opacity="0.2" d="M20.2078 23.8492C20.257 23.7999 20.3363 23.7999 20.3855 23.8492L23.0681 26.5045C23.1173 26.5538 23.1173 26.6331 23.0681 26.6823C23.0189 26.7316 22.9396 26.7316 22.8904 26.6823L20.2078 24.027C20.1586 23.9778 20.1586 23.8984 20.2078 23.8492Z" fill="#981D87"/>
<path opacity="0.2" d="M19.0672 25.0037C19.1164 24.9545 19.1956 24.9545 19.2448 25.0037L21.9274 27.659C21.9766 27.7083 21.9766 27.7876 21.9274 27.8369C21.8782 27.8861 21.799 27.8861 21.7498 27.8369L19.0672 25.1816C19.018 25.1323 19.018 25.053 19.0672 25.0037Z" fill="#981D87"/>
<path opacity="0.2" d="M17.8286 26.2552C17.8778 26.2059 17.9571 26.2059 18.0063 26.2552L20.6889 28.9105C20.7381 28.9598 20.7381 29.0391 20.6889 29.0883C20.6397 29.1376 20.5605 29.1376 20.5113 29.0883L17.8286 26.433C17.7794 26.3838 17.7794 26.3044 17.8286 26.2552Z" fill="#981D87"/>
<path opacity="0.2" d="M23.3328 20.8983L25.9976 23.5345C26.1561 23.6918 26.1575 23.949 26.0003 24.1076L13.026 37.2488C12.9002 37.376 12.7103 37.4033 12.5586 37.3267L19.658 30.1365L16.7964 27.3061L17.9921 26.0954L20.8538 28.9258L21.2009 28.5742L18.3393 25.7438L19.2275 24.845L22.0892 27.6754L22.2053 27.5578L19.3437 24.7274L20.2894 23.7697L23.151 26.6002L23.2275 26.5222L20.3659 23.6918L23.207 20.8135C23.2521 20.8326 23.2945 20.8614 23.3328 20.8983Z" fill="#981D87"/>
<path opacity="0.2" d="M22.7589 20.9024L9.78452 34.0435C9.62736 34.2022 9.62736 34.4594 9.78725 34.6167L12.4521 37.2529C12.4835 37.2843 12.5191 37.309 12.5573 37.3281L12.8361 37.0463L9.97448 34.2145L10.1385 34.049L13.0001 36.8808L13.4046 36.4704L10.543 33.64L10.7999 33.38L13.6615 36.2105L14.3312 35.5319L11.4695 32.7015L11.8358 32.3308L14.6974 35.1612L15.2577 34.5935L12.3961 31.7631L12.7869 31.3677L15.6485 34.1981L16.2088 33.6304L13.3472 30.8L13.9553 30.1844L16.817 33.0148L17.0971 32.7316L14.2355 29.9012L15.1607 28.9641L18.0223 31.7945L18.1631 31.6522L15.3014 28.8218L23.2071 20.8149C23.0582 20.7506 22.8792 20.782 22.7589 20.9024Z" fill="white"/>
<path opacity="0.2" d="M25.9269 24.1827L14.1715 36.0885C13.3721 34.1172 13.0919 32.2116 13.0154 30.7697L22.6853 20.9775C22.8821 20.7764 23.2046 20.775 23.4055 20.972L25.9228 23.4618C26.1223 23.6615 26.1237 23.9816 25.9269 24.1827Z" fill="#981D87"/>
<defs>
<linearGradient id="paint0_linear_1164_12343" x1="25.9614" y1="33.3426" x2="27.5083" y2="40.4427" gradientUnits="userSpaceOnUse">
<stop stop-color="#FFBAF5"/>
<stop offset="0.986917" stop-color="#D73BC2"/>
</linearGradient>
<linearGradient id="paint1_linear_1164_12343" x1="26.3999" y1="28.8321" x2="27.9467" y2="35.9322" gradientUnits="userSpaceOnUse">
<stop stop-color="#FFBAF5"/>
<stop offset="0.986917" stop-color="#D73BC2"/>
</linearGradient>
<linearGradient id="paint2_linear_1164_12343" x1="24.7698" y1="24.3206" x2="26.3166" y2="31.4207" gradientUnits="userSpaceOnUse">
<stop stop-color="#FFBAF5"/>
<stop offset="0.986917" stop-color="#D73BC2"/>
</linearGradient>
<linearGradient id="paint3_linear_1164_12343" x1="25.9614" y1="19.8087" x2="27.5083" y2="26.9087" gradientUnits="userSpaceOnUse">
<stop stop-color="#FFBAF5"/>
<stop offset="0.986917" stop-color="#D73BC2"/>
</linearGradient>
<linearGradient id="paint4_linear_1164_12343" x1="9.71045" y1="22.7593" x2="23.1276" y2="37.2153" gradientUnits="userSpaceOnUse">
<stop stop-color="#FFBAF5"/>
<stop offset="0.986917" stop-color="#D73BC2"/>
</linearGradient>
</defs>
</svg>
